<svg xmlns="http://www.w3.org/2000/svg" version="1.1" xmlns:xlink="http://www.w3.org/1999/xlink" xmlns:svgjs="http://svgjs.com/svgjs" width="1440" height="560" preserveAspectRatio="none" viewBox="0 0 1440 560"><g mask="url(&quot;#SvgjsMask1020&quot;)" fill="none"><g mask="url(&quot;#SvgjsMask1021&quot;)"><path d="M87.5 312.5L112.5 287.5L137.5 287.5M537.5 237.5L562.5 262.5L587.5 262.5M237.5 287.5L262.5 312.5L287.5 312.5L312.5 312.5L337.5 312.5L362.5 312.5L387.5 312.5M137.5 312.5L162.5 337.5L187.5 337.5L212.5 337.5L237.5 312.5M312.5 287.5L337.5 262.5M462.5 237.5L487.5 262.5L512.5 262.5L537.5 262.5L562.5 287.5L587.5 287.5L612.5 287.5M-12.5 287.5L12.5 287.5L37.5 287.5L62.5 312.5L87.5 312.5L112.5 312.5L137.5 312.5L162.5 312.5L187.5 312.5L212.5 312.5L237.5 287.5L262.5 287.5L287.5 287.5L312.5 287.5L337.5 287.5L362.5 262.5L387.5 262.5L412.5 262.5L437.5 262.5L462.5 237.5L487.5 237.5L512.5 237.5L537.5 237.5L562.5 237.5L587.5 237.5" stroke="rgba(0, 154, 229, 1)" stroke-width="4.17"></path><path d="M581.25 237.5 a6.25 6.25 0 1 0 12.5 0 a6.25 6.25 0 1 0 -12.5 0zM131.25 287.5 a6.25 6.25 0 1 0 12.5 0 a6.25 6.25 0 1 0 -12.5 0zM581.25 262.5 a6.25 6.25 0 1 0 12.5 0 a6.25 6.25 0 1 0 -12.5 0zM381.25 312.5 a6.25 6.25 0 1 0 12.5 0 a6.25 6.25 0 1 0 -12.5 0zM231.25 312.5 a6.25 6.25 0 1 0 12.5 0 a6.25 6.25 0 1 0 -12.5 0zM331.25 262.5 a6.25 6.25 0 1 0 12.5 0 a6.25 6.25 0 1 0 -12.5 0zM606.25 287.5 a6.25 6.25 0 1 0 12.5 0 a6.25 6.25 0 1 0 -12.5 0z" fill="rgba(0, 154, 229, 1)"></path><path d="M137.5 262.5L162.5 237.5L187.5 237.5L212.5 237.5L237.5 237.5M187.5 262.5L212.5 287.5M37.5 262.5L62.5 237.5L87.5 237.5L112.5 237.5M-12.5 262.5L12.5 262.5L37.5 262.5L62.5 262.5L87.5 262.5L112.5 262.5L137.5 262.5L162.5 262.5L187.5 262.5L212.5 262.5L237.5 262.5L262.5 262.5" stroke="rgba(53, 223, 177, 1)" stroke-width="4.17"></path><path d="M256.25 262.5 a6.25 6.25 0 1 0 12.5 0 a6.25 6.25 0 1 0 -12.5 0zM231.25 237.5 a6.25 6.25 0 1 0 12.5 0 a6.25 6.25 0 1 0 -12.5 0zM206.25 287.5 a6.25 6.25 0 1 0 12.5 0 a6.25 6.25 0 1 0 -12.5 0zM106.25 237.5 a6.25 6.25 0 1 0 12.5 0 a6.25 6.25 0 1 0 -12.5 0z" fill="rgba(53, 223, 177, 1)"></path><path d="M362.5 337.5L387.5 362.5L412.5 387.5L437.5 387.5L462.5 387.5L487.5 387.5L512.5 387.5L537.5 387.5L562.5 387.5L587.5 387.5L612.5 362.5L637.5 362.5M562.5 337.5L587.5 312.5L612.5 312.5L637.5 312.5L662.5 312.5M312.5 337.5L337.5 362.5L362.5 362.5L387.5 387.5M487.5 337.5L512.5 312.5L537.5 287.5M412.5 337.5L437.5 337.5L462.5 337.5L487.5 312.5L512.5 287.5M462.5 362.5L487.5 362.5L512.5 362.5L537.5 362.5L562.5 362.5L587.5 362.5M-12.5 312.5L12.5 312.5L37.5 312.5L62.5 337.5L87.5 337.5L112.5 337.5L137.5 362.5L162.5 362.5L187.5 362.5L212.5 362.5L237.5 362.5L262.5 337.5L287.5 337.5L312.5 337.5L337.5 337.5L362.5 337.5L387.5 337.5L412.5 337.5L437.5 362.5L462.5 362.5L487.5 337.5L512.5 337.5L537.5 337.5L562.5 337.5L587.5 337.5L612.5 337.5L637.5 337.5" stroke="rgba(53, 223, 177, 1)" stroke-width="4.17"></path><path d="M631.25 337.5 a6.25 6.25 0 1 0 12.5 0 a6.25 6.25 0 1 0 -12.5 0zM631.25 362.5 a6.25 6.25 0 1 0 12.5 0 a6.25 6.25 0 1 0 -12.5 0zM656.25 312.5 a6.25 6.25 0 1 0 12.5 0 a6.25 6.25 0 1 0 -12.5 0zM381.25 387.5 a6.25 6.25 0 1 0 12.5 0 a6.25 6.25 0 1 0 -12.5 0zM531.25 287.5 a6.25 6.25 0 1 0 12.5 0 a6.25 6.25 0 1 0 -12.5 0zM506.25 287.5 a6.25 6.25 0 1 0 12.5 0 a6.25 6.25 0 1 0 -12.5 0zM581.25 362.5 a6.25 6.25 0 1 0 12.5 0 a6.25 6.25 0 1 0 -12.5 0z" fill="rgba(53, 223, 177, 1)"></path><path d="M287.5 237.5L312.5 212.5L337.5 212.5M12.5 237.5L37.5 237.5M-12.5 237.5L12.5 237.5L37.5 212.5L62.5 212.5L87.5 212.5L112.5 212.5L137.5 212.5L162.5 212.5L187.5 212.5L212.5 212.5L237.5 212.5L262.5 212.5L287.5 237.5L312.5 237.5L337.5 237.5" stroke="rgba(53, 223, 177, 1)" stroke-width="4.17"></path><path d="M331.25 237.5 a6.25 6.25 0 1 0 12.5 0 a6.25 6.25 0 1 0 -12.5 0zM331.25 212.5 a6.25 6.25 0 1 0 12.5 0 a6.25 6.25 0 1 0 -12.5 0zM31.25 237.5 a6.25 6.25 0 1 0 12.5 0 a6.25 6.25 0 1 0 -12.5 0z" fill="rgba(53, 223, 177, 1)"></path><path d="M-12.5 337.5L12.5 337.5L37.5 337.5L62.5 362.5L87.5 362.5L112.5 362.5L137.5 387.5L162.5 387.5L187.5 387.5L212.5 387.5L237.5 387.5L262.5 387.5L287.5 387.5" stroke="rgba(53, 223, 177, 1)" stroke-width="4.17"></path><path d="M281.25 387.5 a6.25 6.25 0 1 0 12.5 0 a6.25 6.25 0 1 0 -12.5 0z" fill="rgba(53, 223, 177, 1)"></path><path d="M212.5 187.5L237.5 162.5M287.5 162.5L312.5 187.5L337.5 187.5M137.5 187.5L162.5 162.5L187.5 162.5M-12.5 212.5L12.5 212.5L37.5 187.5L62.5 187.5L87.5 187.5L112.5 187.5L137.5 187.5L162.5 187.5L187.5 187.5L212.5 187.5L237.5 187.5L262.5 187.5L287.5 162.5L312.5 162.5" stroke="rgba(53, 223, 177, 1)" stroke-width="4.17"></path><path d="M306.25 162.5 a6.25 6.25 0 1 0 12.5 0 a6.25 6.25 0 1 0 -12.5 0zM231.25 162.5 a6.25 6.25 0 1 0 12.5 0 a6.25 6.25 0 1 0 -12.5 0zM331.25 187.5 a6.25 6.25 0 1 0 12.5 0 a6.25 6.25 0 1 0 -12.5 0zM181.25 162.5 a6.25 6.25 0 1 0 12.5 0 a6.25 6.25 0 1 0 -12.5 0z" fill="rgba(53, 223, 177, 1)"></path><path d="M-12.5 362.5L12.5 362.5L37.5 362.5L62.5 387.5L87.5 387.5L112.5 387.5" stroke="rgba(0, 154, 229, 1)" stroke-width="4.17"></path><path d="M106.25 387.5 a6.25 6.25 0 1 0 12.5 0 a6.25 6.25 0 1 0 -12.5 0z" fill="rgba(0, 154, 229, 1)"></path><path d="M-12.5 187.5L12.5 187.5L37.5 162.5" stroke="rgba(53, 223, 177, 1)" stroke-width="4.17"></path><path d="M31.25 162.5 a6.25 6.25 0 1 0 12.5 0 a6.25 6.25 0 1 0 -12.5 0z" fill="rgba(53, 223, 177, 1)"></path><path d="M437.5 412.5L462.5 437.5M112.5 412.5L137.5 437.5L162.5 437.5L187.5 437.5L212.5 437.5L237.5 437.5M337.5 412.5L362.5 437.5L387.5 437.5M487.5 412.5L512.5 437.5L537.5 437.5M412.5 412.5L437.5 437.5L462.5 462.5L487.5 462.5L512.5 487.5L537.5 487.5L562.5 487.5L587.5 487.5L612.5 487.5M87.5 412.5L112.5 437.5L137.5 462.5L162.5 462.5M-12.5 387.5L12.5 387.5L37.5 387.5L62.5 412.5L87.5 412.5L112.5 412.5L137.5 412.5L162.5 412.5L187.5 412.5L212.5 412.5L237.5 412.5L262.5 412.5L287.5 412.5L312.5 412.5L337.5 412.5L362.5 412.5L387.5 412.5L412.5 412.5L437.5 412.5L462.5 412.5L487.5 412.5L512.5 412.5L537.5 412.5L562.5 412.5L587.5 412.5L612.5 387.5" stroke="rgba(53, 223, 177, 1)" stroke-width="4.17"></path><path d="M606.25 387.5 a6.25 6.25 0 1 0 12.5 0 a6.25 6.25 0 1 0 -12.5 0zM456.25 437.5 a6.25 6.25 0 1 0 12.5 0 a6.25 6.25 0 1 0 -12.5 0zM231.25 437.5 a6.25 6.25 0 1 0 12.5 0 a6.25 6.25 0 1 0 -12.5 0zM381.25 437.5 a6.25 6.25 0 1 0 12.5 0 a6.25 6.25 0 1 0 -12.5 0zM531.25 437.5 a6.25 6.25 0 1 0 12.5 0 a6.25 6.25 0 1 0 -12.5 0zM606.25 487.5 a6.25 6.25 0 1 0 12.5 0 a6.25 6.25 0 1 0 -12.5 0zM156.25 462.5 a6.25 6.25 0 1 0 12.5 0 a6.25 6.25 0 1 0 -12.5 0z" fill="rgba(53, 223, 177, 1)"></path><path d="M212.5 62.5L237.5 62.5M362.5 137.5L387.5 112.5L412.5 112.5L437.5 112.5L462.5 112.5L487.5 112.5M237.5 87.5L262.5 112.5L287.5 137.5M337.5 137.5L362.5 112.5L387.5 87.5M-12.5 162.5L12.5 162.5L37.5 137.5L62.5 137.5L87.5 112.5L112.5 87.5L137.5 87.5L162.5 87.5L187.5 62.5L212.5 62.5L237.5 87.5L262.5 87.5L287.5 112.5L312.5 112.5L337.5 137.5L362.5 137.5L387.5 137.5L412.5 137.5L437.5 162.5" stroke="rgba(0, 154, 229, 1)" stroke-width="4.17"></path><path d="M431.25 162.5 a6.25 6.25 0 1 0 12.5 0 a6.25 6.25 0 1 0 -12.5 0zM231.25 62.5 a6.25 6.25 0 1 0 12.5 0 a6.25 6.25 0 1 0 -12.5 0zM481.25 112.5 a6.25 6.25 0 1 0 12.5 0 a6.25 6.25 0 1 0 -12.5 0zM281.25 137.5 a6.25 6.25 0 1 0 12.5 0 a6.25 6.25 0 1 0 -12.5 0zM381.25 87.5 a6.25 6.25 0 1 0 12.5 0 a6.25 6.25 0 1 0 -12.5 0z" fill="rgba(0, 154, 229, 1)"></path></g></g><defs><mask id="SvgjsMask1020"><rect width="1440" height="560" fill="#ffffff"></rect></mask><mask id="SvgjsMask1021"><rect width="1440" height="560" fill="white"></rect><path d="M584.37 237.5 a3.13 3.13 0 1 0 6.26 0 a3.13 3.13 0 1 0 -6.26 0zM134.37 287.5 a3.13 3.13 0 1 0 6.26 0 a3.13 3.13 0 1 0 -6.26 0zM584.37 262.5 a3.13 3.13 0 1 0 6.26 0 a3.13 3.13 0 1 0 -6.26 0zM384.37 312.5 a3.13 3.13 0 1 0 6.26 0 a3.13 3.13 0 1 0 -6.26 0zM234.37 312.5 a3.13 3.13 0 1 0 6.26 0 a3.13 3.13 0 1 0 -6.26 0zM334.37 262.5 a3.13 3.13 0 1 0 6.26 0 a3.13 3.13 0 1 0 -6.26 0zM609.37 287.5 a3.13 3.13 0 1 0 6.26 0 a3.13 3.13 0 1 0 -6.26 0z" fill="black"></path><path d="M259.37 262.5 a3.13 3.13 0 1 0 6.26 0 a3.13 3.13 0 1 0 -6.26 0zM234.37 237.5 a3.13 3.13 0 1 0 6.26 0 a3.13 3.13 0 1 0 -6.26 0zM209.37 287.5 a3.13 3.13 0 1 0 6.26 0 a3.13 3.13 0 1 0 -6.26 0zM109.37 237.5 a3.13 3.13 0 1 0 6.26 0 a3.13 3.13 0 1 0 -6.26 0z" fill="black"></path><path d="M634.37 337.5 a3.13 3.13 0 1 0 6.26 0 a3.13 3.13 0 1 0 -6.26 0zM634.37 362.5 a3.13 3.13 0 1 0 6.26 0 a3.13 3.13 0 1 0 -6.26 0zM659.37 312.5 a3.13 3.13 0 1 0 6.26 0 a3.13 3.13 0 1 0 -6.26 0zM384.37 387.5 a3.13 3.13 0 1 0 6.26 0 a3.13 3.13 0 1 0 -6.26 0zM534.37 287.5 a3.13 3.13 0 1 0 6.26 0 a3.13 3.13 0 1 0 -6.26 0zM509.37 287.5 a3.13 3.13 0 1 0 6.26 0 a3.13 3.13 0 1 0 -6.26 0zM584.37 362.5 a3.13 3.13 0 1 0 6.26 0 a3.13 3.13 0 1 0 -6.26 0z" fill="black"></path><path d="M334.37 237.5 a3.13 3.13 0 1 0 6.26 0 a3.13 3.13 0 1 0 -6.26 0zM334.37 212.5 a3.13 3.13 0 1 0 6.26 0 a3.13 3.13 0 1 0 -6.26 0zM34.37 237.5 a3.13 3.13 0 1 0 6.26 0 a3.13 3.13 0 1 0 -6.26 0z" fill="black"></path><path d="M284.37 387.5 a3.13 3.13 0 1 0 6.26 0 a3.13 3.13 0 1 0 -6.26 0z" fill="black"></path><path d="M309.37 162.5 a3.13 3.13 0 1 0 6.26 0 a3.13 3.13 0 1 0 -6.26 0zM234.37 162.5 a3.13 3.13 0 1 0 6.26 0 a3.13 3.13 0 1 0 -6.26 0zM334.37 187.5 a3.13 3.13 0 1 0 6.26 0 a3.13 3.13 0 1 0 -6.26 0zM184.37 162.5 a3.13 3.13 0 1 0 6.26 0 a3.13 3.13 0 1 0 -6.26 0z" fill="black"></path><path d="M109.37 387.5 a3.13 3.13 0 1 0 6.26 0 a3.13 3.13 0 1 0 -6.26 0z" fill="black"></path><path d="M34.37 162.5 a3.13 3.13 0 1 0 6.26 0 a3.13 3.13 0 1 0 -6.26 0z" fill="black"></path><path d="M609.37 387.5 a3.13 3.13 0 1 0 6.26 0 a3.13 3.13 0 1 0 -6.26 0zM459.37 437.5 a3.13 3.13 0 1 0 6.26 0 a3.13 3.13 0 1 0 -6.26 0zM234.37 437.5 a3.13 3.13 0 1 0 6.26 0 a3.13 3.13 0 1 0 -6.26 0zM384.37 437.5 a3.13 3.13 0 1 0 6.26 0 a3.13 3.13 0 1 0 -6.26 0zM534.37 437.5 a3.13 3.13 0 1 0 6.26 0 a3.13 3.13 0 1 0 -6.26 0zM609.37 487.5 a3.13 3.13 0 1 0 6.26 0 a3.13 3.13 0 1 0 -6.26 0zM159.37 462.5 a3.13 3.13 0 1 0 6.26 0 a3.13 3.13 0 1 0 -6.26 0z" fill="black"></path><path d="M434.37 162.5 a3.13 3.13 0 1 0 6.26 0 a3.13 3.13 0 1 0 -6.26 0zM234.37 62.5 a3.13 3.13 0 1 0 6.26 0 a3.13 3.13 0 1 0 -6.26 0zM484.37 112.5 a3.13 3.13 0 1 0 6.26 0 a3.13 3.13 0 1 0 -6.26 0zM284.37 137.5 a3.13 3.13 0 1 0 6.26 0 a3.13 3.13 0 1 0 -6.26 0zM384.37 87.5 a3.13 3.13 0 1 0 6.26 0 a3.13 3.13 0 1 0 -6.26 0z" fill="black"></path></mask></defs></svg>